<mxfile host="app.diagrams.net" agent="Mozilla/5.0 (Windows NT 10.0; Win64; x64) AppleWebKit/537.36 (KHTML, like Gecko) Chrome/129.0.0.0 Safari/537.36" version="24.7.16">
  <diagram name="Pagina-1" id="OvpVIhmK7fYH2AwkP-_o">
    <mxGraphModel dx="1050" dy="522" grid="1" gridSize="10" guides="1" tooltips="1" connect="1" arrows="1" fold="1" page="1" pageScale="1" pageWidth="827" pageHeight="1169" math="0" shadow="0">
      <root>
        <mxCell id="0" />
        <mxCell id="1" parent="0" />
        <mxCell id="UM7xmdeDkemKs3dX6sJn-1" value="" style="shape=mxgraph.cisco.modems_and_phones.cable_modem;sketch=0;html=1;pointerEvents=1;dashed=0;fillColor=#036897;strokeColor=#ffffff;strokeWidth=2;verticalLabelPosition=bottom;verticalAlign=top;align=center;outlineConnect=0;" vertex="1" parent="1">
          <mxGeometry x="230" y="254" width="74" height="35" as="geometry" />
        </mxCell>
        <mxCell id="UM7xmdeDkemKs3dX6sJn-9" style="edgeStyle=orthogonalEdgeStyle;rounded=0;orthogonalLoop=1;jettySize=auto;html=1;exitX=0.5;exitY=1;exitDx=0;exitDy=0;exitPerimeter=0;" edge="1" parent="1" source="UM7xmdeDkemKs3dX6sJn-2" target="UM7xmdeDkemKs3dX6sJn-3">
          <mxGeometry relative="1" as="geometry" />
        </mxCell>
        <mxCell id="UM7xmdeDkemKs3dX6sJn-2" value="" style="shape=mxgraph.cisco.routers.10700;sketch=0;html=1;pointerEvents=1;dashed=0;fillColor=#036897;strokeColor=#ffffff;strokeWidth=2;verticalLabelPosition=bottom;verticalAlign=top;align=center;outlineConnect=0;" vertex="1" parent="1">
          <mxGeometry x="414" y="245" width="78" height="53" as="geometry" />
        </mxCell>
        <mxCell id="UM7xmdeDkemKs3dX6sJn-3" value="" style="shape=mxgraph.cisco.switches.workgroup_switch;sketch=0;html=1;pointerEvents=1;dashed=0;fillColor=#036897;strokeColor=#ffffff;strokeWidth=2;verticalLabelPosition=bottom;verticalAlign=top;align=center;outlineConnect=0;" vertex="1" parent="1">
          <mxGeometry x="402.5" y="405" width="101" height="50" as="geometry" />
        </mxCell>
        <mxCell id="UM7xmdeDkemKs3dX6sJn-8" style="edgeStyle=orthogonalEdgeStyle;rounded=0;orthogonalLoop=1;jettySize=auto;html=1;exitX=1;exitY=0.45;exitDx=0;exitDy=0;exitPerimeter=0;entryX=0;entryY=0.5;entryDx=0;entryDy=0;entryPerimeter=0;" edge="1" parent="1" source="UM7xmdeDkemKs3dX6sJn-1" target="UM7xmdeDkemKs3dX6sJn-2">
          <mxGeometry relative="1" as="geometry" />
        </mxCell>
        <mxCell id="UM7xmdeDkemKs3dX6sJn-13" value="" style="shape=mxgraph.cisco.wireless.wireless_transport;sketch=0;html=1;pointerEvents=1;dashed=0;fillColor=#036897;strokeColor=#ffffff;strokeWidth=2;verticalLabelPosition=bottom;verticalAlign=top;align=center;outlineConnect=0;" vertex="1" parent="1">
          <mxGeometry x="580" y="403" width="77" height="54" as="geometry" />
        </mxCell>
        <mxCell id="UM7xmdeDkemKs3dX6sJn-14" style="edgeStyle=orthogonalEdgeStyle;rounded=0;orthogonalLoop=1;jettySize=auto;html=1;exitX=0.98;exitY=0.5;exitDx=0;exitDy=0;exitPerimeter=0;entryX=0;entryY=0.5;entryDx=0;entryDy=0;entryPerimeter=0;" edge="1" parent="1" source="UM7xmdeDkemKs3dX6sJn-3" target="UM7xmdeDkemKs3dX6sJn-13">
          <mxGeometry relative="1" as="geometry" />
        </mxCell>
        <mxCell id="UM7xmdeDkemKs3dX6sJn-17" style="edgeStyle=orthogonalEdgeStyle;rounded=0;orthogonalLoop=1;jettySize=auto;html=1;exitX=0.95;exitY=0.5;exitDx=0;exitDy=0;exitPerimeter=0;" edge="1" parent="1" source="UM7xmdeDkemKs3dX6sJn-16" target="UM7xmdeDkemKs3dX6sJn-3">
          <mxGeometry relative="1" as="geometry" />
        </mxCell>
        <mxCell id="UM7xmdeDkemKs3dX6sJn-16" value="" style="shape=mxgraph.cisco.computers_and_peripherals.laptop;sketch=0;html=1;pointerEvents=1;dashed=0;fillColor=#036897;strokeColor=#ffffff;strokeWidth=2;verticalLabelPosition=bottom;verticalAlign=top;align=center;outlineConnect=0;" vertex="1" parent="1">
          <mxGeometry x="130" y="405" width="90" height="61" as="geometry" />
        </mxCell>
        <mxCell id="UM7xmdeDkemKs3dX6sJn-18" value="" style="shape=mxgraph.cisco.computers_and_peripherals.pc;sketch=0;html=1;pointerEvents=1;dashed=0;fillColor=#036897;strokeColor=#ffffff;strokeWidth=2;verticalLabelPosition=bottom;verticalAlign=top;align=center;outlineConnect=0;" vertex="1" parent="1">
          <mxGeometry x="142" y="515" width="78" height="70" as="geometry" />
        </mxCell>
        <mxCell id="UM7xmdeDkemKs3dX6sJn-19" style="edgeStyle=orthogonalEdgeStyle;rounded=0;orthogonalLoop=1;jettySize=auto;html=1;exitX=0.83;exitY=0.5;exitDx=0;exitDy=0;exitPerimeter=0;entryX=0;entryY=0.98;entryDx=0;entryDy=0;entryPerimeter=0;" edge="1" parent="1" source="UM7xmdeDkemKs3dX6sJn-18" target="UM7xmdeDkemKs3dX6sJn-3">
          <mxGeometry relative="1" as="geometry" />
        </mxCell>
      </root>
    </mxGraphModel>
  </diagram>
</mxfile>
